<svg width="136" height="147" viewBox="0 0 136 147" fill="none" xmlns="http://www.w3.org/2000/svg">
<path d="M22.0766 48.8972C24.1974 48.674 24.3091 48.7298 24.6439 50.6274C28.2716 70.1053 58.0187 66.7009 61.1999 46.4416C61.8696 42.2558 63.0417 40.5815 65.4416 40.5815C66.3904 40.5815 66.781 40.9163 66.781 41.6418C66.781 55.2038 88.7702 64.4684 97.5883 54.5899C100.714 51.1297 104.286 44.6556 104.621 41.9209L104.9 39.4094L108.137 39.0746C113.774 38.4048 113.718 38.1258 106.016 26.2939C92.6215 5.75561 82.2405 -2.67182 76.492 2.23952C74.7618 3.7464 74.9293 3.69062 74.5386 16.0806C74.5386 16.9177 75.0969 17.6433 75.8783 17.8665C79.2827 18.7037 83.1894 15.8573 80.2873 14.5737C79.0594 14.0156 79.0035 13.8482 79.3384 10.1088C79.8407 4.63939 80.2315 4.47196 83.915 8.43452C92.3982 17.5875 97.9236 22.6662 100.268 27.1311C100.882 28.2473 100.826 28.4147 100.268 27.8008C99.5979 27.1869 95.8584 26.7962 95.8584 27.3543C95.8584 27.4659 96.6395 28.8612 97.5883 30.3681C106.685 45.0463 90.2215 63.9661 78.5571 52.2459C69.7948 43.4836 77.4969 26.4056 90.2217 26.4056C93.7378 26.4056 94.3516 25.7916 92.0634 24.6196C85.701 21.3268 74.5946 26.5172 69.6832 35.112L68.0648 37.9583L64.158 38.07C61.9256 38.1258 60.2513 37.9584 60.2513 37.6235C60.2513 36.5073 57.4608 34.3306 56.0655 34.3306C54.2795 34.3306 54.2795 34.8888 56.0096 37.4002C63.4883 48.3949 48.9774 64.6917 37.2572 58.4409C22.5232 50.5716 33.5738 26.7404 49.6473 31.8192C54.2796 33.2702 55.0049 33.2702 54.4468 31.8192C50.5958 21.8291 30.7833 28.8612 26.2068 41.8093C24.979 45.3254 24.8672 45.437 22.9696 45.437C21.3511 45.437 21.0722 45.2695 21.407 44.4324C21.6303 43.8743 22.9697 38.5723 24.4766 32.5447C29.1647 13.5691 34.9131 1.45819 36.42 7.59736C37.3688 11.5041 37.4803 19.206 36.5874 19.206C34.2433 19.206 34.2434 22.8895 36.6432 23.4476C41.7778 24.7312 43.5637 10.2205 38.8198 5.92304C33.5178 1.12332 27.1556 5.81141 23.6953 17.2526C22.8581 20.0431 21.2953 24.8987 20.2349 28.0799C14.7655 44.4324 15.2677 49.5111 22.0766 48.8972Z" fill="#385B8A"/>
<path d="M133.14 99.0148C128.061 86.7922 126.052 90.5316 128.842 97.2288C130.405 101.024 130.628 101.973 129.903 101.694C117.904 96.894 93.626 104.54 78.8919 117.879L71.8597 124.241C71.5249 118.604 71.3575 115.367 71.0785 113.581C70.8552 112.019 68.3438 111.572 68.0647 113.302C67.7299 115.367 67.7857 119.051 67.7857 124.911L66.0555 122.958C57.4607 113.191 32.3459 110.456 8.62639 116.763C4.66383 117.823 4.66373 118.883 8.51466 104.986C13.7051 86.0667 15.2118 76.8579 16.2164 73.1744C16.6629 71.5001 34.9132 71.1653 41.7779 72.6721C48.1961 74.0674 62.4276 80.4856 64.4926 82.8297C65.1624 83.611 65.7206 86.848 66.6136 95.0522C67.9531 107.331 68.1205 106.493 69.1809 106.94C71.0785 107.665 70.1297 96.894 69.4041 83.332L76.7154 78.0858C94.0167 65.6958 109.085 66.8678 111.764 66.3655L115.336 71.7791C123.262 83.7226 124.433 88.1875 125.494 85.5086C125.884 84.504 115.894 64.2447 114.331 62.8494C111.373 60.2263 86.7053 59.3334 69.8505 75.9091C65.4415 80.2624 65.9439 80.095 63.5999 78.309C48.4752 66.7562 14.598 62.5146 12.7005 71.9466C11.5284 77.6951 3.49159 100.745 0.589439 115.925C-0.1361 119.832 -0.191801 120.837 0.422116 122.065C1.14765 123.516 1.53844 123.627 3.88249 123.181C4.88708 123.013 5.0544 123.404 5.44507 127.422C5.89156 131.664 7.00766 134.231 8.12388 133.562C8.90523 133.115 8.6822 134.12 7.78923 135.292C5.66843 138.082 8.01226 143.719 11.1935 143.496C12.5887 143.384 12.9795 143.663 13.4818 145.059C14.3189 147.347 15.3794 147.57 17.7234 145.952C20.1791 144.277 24.5881 141.542 31.9551 139.812C39.3221 138.082 62.4835 139.812 64.7717 140.873C66.167 141.542 66.8927 141.654 67.1717 141.208C67.395 140.873 69.2924 140.426 71.469 140.259C78.7802 139.645 90.4448 138.305 95.691 137.413C103.505 136.073 118.183 136.52 123.038 138.25C128.452 140.147 130.126 138.194 126.499 134.231C125.215 132.836 125.159 132.669 126.163 132.948C134.033 135.013 135.484 132.278 130.852 124.018C128.787 120.334 128.787 120.502 131.744 120.502C135.261 120.502 135.093 119.162 130.963 112.912C127.224 107.275 127.224 107.219 131.689 108.726C137.047 110.512 137.27 108.949 133.14 99.0148ZM29.3319 131.664C22.5788 132.278 16.3281 135.571 15.7142 135.794C14.7654 136.073 14.1514 135.459 14.5421 134.008C14.7653 133.115 15.0444 132.055 15.1002 131.608C15.5467 128.706 34.4107 125.86 43.3405 127.367C52.1027 128.818 53.3864 129.432 60.9208 132.111C48.0844 131.218 36.5315 130.994 29.3319 131.664ZM66.446 128.594C38.3174 120.613 27.2671 120.334 12.2541 127.088C10.2449 128.036 8.51461 128.706 8.4588 128.594C8.34717 128.427 8.01231 125.302 7.62164 122.12C21.1836 118.828 32.0109 115.814 45.2938 117.544C49.2564 118.046 54.6142 120.055 58.6884 122.511C65.6647 126.753 68.9017 129.32 66.446 128.594ZM82.7987 121.395C98.2582 108.056 109.141 103.982 121.587 106.94C122.87 107.219 127.949 113.581 127.391 114.139C127.28 114.251 126.108 114.084 124.768 113.749C114.332 111.461 108.416 112.354 94.4075 118.437C90.724 120.055 86.8726 121.674 85.868 122.065C81.738 123.683 71.6924 130.994 82.7987 121.395ZM124.043 125.134C117.29 123.851 109.532 124.074 102.556 125.692C97.3094 126.92 81.3476 130.213 80.8453 129.766C80.5663 129.543 88.4915 125.525 92.4541 123.404C100.491 119.107 110.146 117.656 121.587 118.995C124.042 119.274 124.377 119.553 126.442 122.455C129.177 126.306 129.289 126.139 124.043 125.134Z" fill="#385B8A"/>
</svg>
