<svg width="158" height="146" viewBox="0 0 158 146" fill="none" xmlns="http://www.w3.org/2000/svg">
<path fill-rule="evenodd" clip-rule="evenodd" d="M89.4215 2.334C86.6894 4.8176 83.1504 22.6992 84.6404 26.5486C86.1929 30.5228 90.1047 28.3496 92.0912 22.5132C97.6791 6.30764 96.3134 -3.87472 89.4215 2.334ZM39.5029 4.75576C37.5158 6.74288 44.4076 28.6594 47.8848 31.2054C54.0935 35.7998 56.5765 30.4604 52.6653 20.7746C46.5184 5.37592 43.1037 1.15436 39.5029 4.75576ZM132.2 24.1262C128.537 25.7412 115.126 41.449 115.126 44.1187C115.126 47.4716 119.162 46.2301 123.818 41.449C137.229 27.6652 140.768 20.4012 132.2 24.1262ZM25.5949 53.0607C26.526 53.0607 33.4797 51.9435 30.0031 49.4599C24.7256 45.7342 4.98111 34.8068 2.74607 36.7315C-0.295854 39.3394 21.8073 53.0607 25.5949 53.0607ZM110.097 59.7665C107.427 47.9074 88.8626 36.3593 76.0106 38.5944C43.1037 44.3066 29.8789 79.8832 52.9757 100.496C54.7142 102.049 54.6518 104.035 52.7271 105.712C49.6234 108.444 50.4921 114.404 54.7142 118.937C55.0864 119.372 55.2725 119.93 55.2725 120.489C55.2725 121.048 54.9628 121.544 54.4657 121.917C48.257 126.574 53.286 133.279 54.8379 134.645C56.2667 135.949 61.6679 136.011 68.0009 136.446L68.8702 138.432C71.3538 144.331 81.5985 147.746 85.0751 143.834C87.4968 141.102 89.6701 137.811 89.6701 136.88C89.6701 136.011 90.4151 135.887 94.3263 135.887C103.205 135.887 106.869 129.119 101.404 122.911C99.6038 120.862 100.349 118.378 101.591 118.378C106.993 118.378 107.241 112.914 102.46 107.326C100.101 104.532 100.349 103.725 105.068 98.7578C115.064 88.2027 116.989 67.838 107.862 69.5141C99.1073 71.1284 110.532 74.357 94.8233 98.882L92.7119 102.172C92.2155 102.918 91.408 103.353 90.5387 103.29L88.8007 103.166C84.8271 102.918 84.3925 101.49 87.1865 97.4538C88.2419 95.9638 89.1111 94.5362 89.1111 94.2877C89.1111 94.1015 89.918 92.8595 90.974 91.618C92.8987 89.1962 94.9476 84.2915 94.3887 83.3603C93.0847 81.2489 88.5522 83.2979 88.5522 86.03C88.5522 87.023 87.8072 88.5754 86.7518 89.7551C83.2747 93.7906 83.151 95.4673 82.095 101.676C82.0445 102.099 81.7112 102.433 81.2881 102.483C77.1902 103.104 76.5695 103.228 75.8863 103.29C74.2102 103.415 74.2102 102.731 73.9616 100.062C73.7131 97.2677 70.2365 91.1209 67.7529 89.0719C67.194 88.6373 66.7594 87.6443 66.7594 86.8993C66.6969 82.6771 62.2268 82.1182 61.9165 86.3404C61.7303 88.6997 62.0407 89.3204 65.1451 92.9837C71.6023 100.559 72.1612 103.29 67.3801 103.29C65.0827 103.29 64.2758 103.042 64.2758 102.421C64.2758 101.925 63.4065 100.931 62.4129 100.186C52.0445 92.7976 45.7116 68.9552 51.1128 57.8418C60.6125 38.532 90.2908 38.1597 98.6103 54.6132C102.46 62.4362 111.587 66.4722 110.097 59.7665ZM75.576 67.8998C74.3963 68.6448 73.4027 68.8934 73.2166 68.5212C72.5334 67.4652 69.4291 67.8998 67.6905 69.2662C63.0961 72.867 61.0472 78.3307 63.7169 79.7589C65.1451 80.5039 66.3866 79.6347 66.9455 78.2689C67.6905 76.4684 67.6905 75.5367 68.3113 73.3017C68.5598 72.4324 70.9191 70.3834 71.2919 73.4259C71.4156 74.7299 71.3538 76.8406 71.3538 79.1382C71.3538 82.9875 71.4162 85.3468 71.7266 86.775C71.9745 88.0165 73.1542 88.8858 74.4581 88.7616C75.762 88.6373 76.6931 87.5201 76.6931 86.2161L76.5689 81.4351C76.4452 74.0467 75.8863 70.5077 78.4942 70.3834C79.1767 70.3834 79.8599 70.4459 79.9842 79.2624C80.1085 85.9058 80.3564 88.3893 82.9025 88.3893C84.889 88.3893 85.4479 86.775 85.4479 81.1246C85.4479 78.5792 85.1993 74.7299 85.3236 72.7428C85.4479 70.8181 86.7518 70.2592 87.8696 70.632C89.4833 71.2527 89.8561 74.4195 89.1111 76.0956C88.18 78.1446 88.6147 79.8832 91.5947 79.3867C94.2026 78.952 94.9476 77.896 93.8922 76.2199C93.4576 75.5367 92.8987 74.1091 92.6501 73.1156C91.5947 68.7073 88.1176 66.7826 84.4543 68.583C82.9025 69.328 82.5921 69.328 81.7846 68.3345C80.1085 66.7826 77.811 66.5341 75.576 67.8998ZM130.71 79.7589C123.012 81.5593 126.55 84.1053 136.795 84.1053C141.079 84.1053 146.853 84.2915 149.585 84.4775C154.925 84.9122 158.712 83.4222 156.973 81.6217C155.173 79.8207 136.236 78.455 130.71 79.7589ZM21.6831 86.4647C7.71323 88.5136 -4.14581 93.7906 2.49811 95.0945C9.32755 96.3985 27.8924 89.6933 25.9671 86.6508C25.6567 85.9676 25.0359 85.9676 21.6831 86.4647ZM94.6991 117.695C93.0229 120.427 93.0223 120.427 95.258 122.724C98.0519 125.642 97.8034 127.319 94.513 127.877C79.9842 130.236 67.3183 130.547 62.0407 129.057C58.1289 128.001 58.8739 124.587 61.3575 123.531C62.3511 123.097 62.9719 120.054 60.7368 118.688C57.8185 116.95 58.5017 114.156 63.2822 113.535C67.7529 112.914 77.0042 112.914 94.8233 112.728C95.9412 112.728 96.6856 113.907 96.2515 114.901C95.8787 115.646 95.3823 116.515 94.6991 117.695ZM85.9443 136.57C84.2058 139.922 81.35 141.102 79.1149 141.04C74.3963 140.916 73.2166 137.315 74.2102 136.756C74.272 136.694 86.1311 136.197 85.9443 136.57Z" fill="#F97203"/>
</svg>
