<svg width="50" height="50" viewBox="0 0 50 50" fill="none" xmlns="http://www.w3.org/2000/svg">
<path d="M0.999939 25C0.999939 11.8023 11.8022 1 24.9999 1C38.1977 1 48.9999 11.8023 48.9999 25C48.9999 38.1977 38.1977 49 24.9999 49C11.8022 49 0.999939 38.1977 0.999939 25ZM33.36 35.3573C34.7228 36.1959 36.5073 35.771 37.346 34.4082C38.1913 33.0346 37.7521 31.2351 36.3691 30.4053L28.2209 25.5164C27.6185 25.155 27.2499 24.504 27.2499 23.8014V14.375C27.2499 12.7872 25.9628 11.5 24.3749 11.5C22.7871 11.5 21.4999 12.7872 21.4999 14.375V25.8236C21.4999 27.2127 22.2206 28.5023 23.4035 29.2302L33.36 35.3573Z" stroke="#F97203" stroke-width="2"/>
</svg>
