<svg width="72" height="75" viewBox="0 0 72 75" fill="none" xmlns="http://www.w3.org/2000/svg">
<path fill-rule="evenodd" clip-rule="evenodd" d="M33.9803 22.281L35.1505 24.9171C34.5142 25.5576 29.1113 31.614 28.6646 31.0557C28.612 31.015 17.5719 26.8777 10.7743 29.6192C3.34364 32.6249 -1.27551 41.2689 1.10425 51.2404C3.83773 62.5813 23.0851 66.6312 31.2635 57.5616L32.8132 55.8238C33.5021 56.0235 38.3989 57.6492 39.1481 57.5596C39.523 57.5148 39.6498 57.782 39.4823 58.3665C35.6827 72.2761 59.2177 80.8005 69.0688 69.0373C74.9704 61.9802 69.8559 46.2196 61.5797 46.1271C58.6786 46.0977 58.5829 47.2854 61.3119 49.4523C70.7732 57.0719 61.9218 76.0079 51.5887 70.2331C40.3462 64.003 46.2133 47.9174 56.1774 46.6319C57.5355 46.4695 57.8625 45.6305 56.7657 45.1972C52.5824 43.5804 46.9747 45.9446 43.0222 51.0277L40.683 54.5062C40.1928 54.3767 35.7779 53.2108 34.4471 52.8055L35.2083 50.0328C36.527 45.1707 36.1657 41.356 33.8983 37.4871C32.2153 34.536 32.0716 34.13 32.7245 33.6283C33.6827 32.9023 37.7794 29.0252 38.462 28.3787L41.1383 29.7055C55.1775 36.6835 70.6703 27.2096 68.8877 12.697C67.9371 5.14247 61.4187 1.87574 54.8748 0.776323C35.2536 -2.42935 29.5178 12.3704 33.9803 22.281ZM62.3165 12.1656C63.9524 25.8485 47.7731 33.9464 41.6534 22.4929C39.1978 17.8462 37.9941 0.630357 53.3255 3.31393C57.6898 4.06222 61.7175 7.15619 62.3165 12.1656ZM28.6237 35.4829C33.1295 40.5897 31.3974 52.3233 23.519 57.5464C18.9427 60.5872 12.0503 58.1651 9.4371 52.5965C7.15742 47.8353 8.20515 41.4998 10.7723 37.1467C15.3918 29.3022 26.3183 32.8887 28.6237 35.4829Z" fill="#F97203"/>
</svg>
