<svg width="154" height="164" viewBox="0 0 154 164" fill="none" xmlns="http://www.w3.org/2000/svg">
<path fill-rule="evenodd" clip-rule="evenodd" d="M42.0319 2.23335C14.8591 7.30307 0.893134 27.3939 0.893134 61.8471C0.797542 97.1463 36.8072 118.832 73.8609 105.783L80.7017 103.342C86.3072 109.163 87.2574 109.163 81.272 112.73C76.5211 115.547 76.9958 118.457 80.0367 119.584C84.1217 121.085 108.92 144.649 112.246 150.376C124.502 171.499 155.095 164.083 153.005 147.559C152.055 140.049 146.259 131.318 139.418 125.123C131.818 118.175 127.542 112.543 121.936 102.028C116.521 91.7948 111.675 89.5417 104.645 93.767C101.604 95.5503 101.319 95.6439 99.7037 94.1424C96.3785 91.2321 96.5688 89.2607 100.654 83.1585C116.236 59.5003 117.09 38.8468 103.314 22.4178C84.1217 -0.488802 67.6851 7.77294 78.8969 14.9077C106.165 32.1811 104.74 67.2922 75.6665 93.767C59.5142 108.506 27.0202 100.62 18.6598 79.9665C5.45282 47.1085 27.2106 3.73573 62.4595 10.6832C74.6207 13.7807 79.4664 -4.71329 42.0319 2.23335ZM38.232 25.6098C34.1461 28.9891 36.8063 31.8993 44.4069 26.736C49.7281 23.1694 52.2935 22.5115 57.1392 23.6384C63.5045 25.0471 67.4 23.4511 65.4048 20.2592C64.7398 19.1322 50.773 15.1894 38.2312 25.6098H38.232ZM76.3307 24.3892C71.2007 24.1075 69.8706 26.9241 73.3854 30.5859C77.7564 35.1858 86.4975 35.9366 86.022 31.712C85.7378 28.8018 80.2262 24.5773 76.3307 24.3892ZM109.395 103.06C110.156 106.159 117.661 117.049 121.652 121.085C126.497 125.873 128.587 129.065 134.858 135.825C147.589 149.625 132.387 163.331 120.416 146.058C105.309 124.277 91.2476 117.424 91.438 114.89C91.7231 111.697 108.73 100.432 109.395 103.06Z" fill="#F97203"/>
</svg>
