<svg width="160" height="150" viewBox="0 0 160 150" fill="none" xmlns="http://www.w3.org/2000/svg">
<path fill-rule="evenodd" clip-rule="evenodd" d="M55.6444 8.5075C42.5712 19.4871 39.5379 20.937 26.6749 22.2839C9.94165 24.0441 10.255 23.9421 10.8826 27.2559C11.5094 30.778 12.4512 44.1403 12.7654 47.6616C0.215023 61.8529 -0.0983238 61.2313 1.05126 69.2067C1.47023 72.4184 0.633143 102.25 2.72544 129.907C3.24829 136.846 5.5484 140.057 12.0322 143.372C24.5826 149.587 34.9369 145.962 25.0008 138.815C16.1112 132.392 15.275 129.595 14.334 104.114C14.0206 95.8275 13.2883 84.5375 12.6598 78.944C10.1503 56.7772 17.7854 65.9958 17.4712 67.8606C16.8444 72.8325 19.354 76.7688 30.4397 82.4652C37.133 85.8836 62.1283 101.732 72.0635 105.047C86.8101 110.122 92.8758 101.007 127.598 77.4933C133.978 73.2467 138.16 69.4141 140.566 65.6854C146.632 56.466 147.259 103.182 141.298 123.07C137.324 136.328 136.174 136.743 98.0005 137.675C58.8863 138.607 40.271 141.093 41.2121 143.89C43.513 150.726 130.212 152.28 143.913 145.858C149.979 142.958 156.567 128.249 157.822 121.102C159.704 110.537 159.81 94.2739 158.137 72.625C156.986 57.0876 155.417 53.6692 146.737 46.0042C143.703 43.3112 143.494 38.2355 146.213 28.085C147.259 24.1479 148.619 17.8298 139.101 17.8298C129.584 17.8298 114.316 18.4514 111.701 18.4514C107.936 16.1725 92.3529 7.36807 89.6339 4.67502C87.229 2.81024 72.5872 -5.68304 55.6444 8.5075ZM89.6339 14.3086C93.19 16.5875 96.1177 18.5552 96.1177 18.8664C96.1177 19.073 87.1235 19.2796 76.1425 19.2796C54.8073 19.2796 54.3892 19.073 61.8149 14.5152C72.4825 7.78219 79.2805 7.78219 89.6339 14.3086ZM134.291 58.227C133.454 62.3708 128.957 64.2347 125.924 61.8529C123.728 60.1956 121.637 59.7806 113.165 59.7806C110.551 59.7806 65.5796 59.574 44.8721 61.0238C26.6749 62.267 36.4007 69.4141 46.0225 70.6573C54.0758 71.6931 118.918 69.2067 117.662 71.1752C117.035 72.2109 96.5359 87.1268 83.0453 98.0027C80.2215 96.5528 27.6159 70.0358 25.6284 70.0358C23.8511 70.0358 22.5959 29.8452 22.7007 29.7423C23.014 29.3273 83.7768 27.67 133.663 27.67C135.337 43.0008 136.278 48.2831 134.291 58.227ZM83.2539 42.5858C76.6654 49.1122 83.8815 51.5978 108.04 51.1837C129.689 50.7695 131.362 50.3546 127.18 45.5901C123.519 41.2398 87.0196 38.7534 83.2539 42.5858Z" fill="#F97203"/>
</svg>
